# xmcd
#
# Track frame offsets: 
#        150
#        17396
#        33960
#        51240
#        69000
#        83427
#        103217
#        121134
#        144016
#        166622
#        187212
#        207098
#
# Disc length: 3118 seconds
#
# Revision: 0
# Processed by: cddbd v1.5.2PL0 Copyright (c) Steve Scherf et al.
# Submitted via: ExactAudioCopy v0.99pb5
#
DISCID=8a0c2c0c
DTITLE=John Brannen - Twilight Tattoo
DYEAR=2006
DGENRE=Folk/Rock
TTITLE0=Just Restless
TTITLE1=Boiom Baby Boom
TTITLE2=Almost Love
TTITLE3=A Cut So Deep
TTITLE4=Heartbreak Ridge
TTITLE5=Black Mountain Dandy
TTITLE6=Goin' Fishin'
TTITLE7=Jericho Road
TTITLE8=Twilight Tattoo
TTITLE9=Vagabond Saints
TTITLE10=Rain
TTITLE11=The Mountain
EXTD=
EXTT0=
EXTT1=
EXTT2=
EXTT3=
EXTT4=
EXTT5=
EXTT6=
EXTT7=
EXTT8=
EXTT9=
EXTT10=
EXTT11=
PLAYORDER=
